<?xml version="1.0" encoding="UTF-8" standalone="no"?>
<!DOCTYPE svg PUBLIC "-//W3C//DTD SVG 1.1//EN"
 "http://www.w3.org/Graphics/SVG/1.1/DTD/svg11.dtd">
<!-- Generated by graphviz version 14.0.2 (20251019.1705)
 -->
<!-- Title: Ghost_RMSD_Net Pages: 1 -->
<svg width="369pt" height="864pt"
 viewBox="0.00 0.00 369.00 864.00" xmlns="http://www.w3.org/2000/svg" xmlns:xlink="http://www.w3.org/1999/xlink">
<g id="graph0" class="graph" transform="scale(0.959201 0.959201) rotate(0) translate(4 896.75)">
<title>Ghost_RMSD_Net</title>
<polygon fill="white" stroke="none" points="-4,4 -4,-896.75 380.62,-896.75 380.62,4 -4,4"/>
<g id="clust1" class="cluster">
<title>cluster_2</title>
<polygon fill="white" stroke="black" stroke-dasharray="5,2" points="152.38,-200.5 152.38,-855.25 334.38,-855.25 334.38,-200.5 152.38,-200.5"/>
<text xml:space="preserve" text-anchor="middle" x="185.12" y="-839.85" font-family="Times,serif" font-size="12.00">Sequential</text>
</g>
<g id="clust2" class="cluster">
<title>cluster_3</title>
<polygon fill="white" stroke="black" stroke-dasharray="5,2" points="160.38,-520.75 160.38,-825 326.38,-825 326.38,-520.75 160.38,-520.75"/>
<text xml:space="preserve" text-anchor="middle" x="195" y="-809.6" font-family="Times,serif" font-size="12.00">MLPBlock</text>
</g>
<g id="clust3" class="cluster">
<title>cluster_4</title>
<polygon fill="white" stroke="black" stroke-dasharray="5,2" points="160.38,-208.5 160.38,-512.75 326.38,-512.75 326.38,-208.5 160.38,-208.5"/>
<text xml:space="preserve" text-anchor="middle" x="195" y="-497.35" font-family="Times,serif" font-size="12.00">MLPBlock</text>
</g>
<!-- 0 -->
<g id="node1" class="node">
<title>0</title>
<path fill="lightyellow" stroke="#555555" d="M283.67,-892.75C283.67,-892.75 203.08,-892.75 203.08,-892.75 198.17,-892.75 193.25,-887.83 193.25,-882.92 193.25,-882.92 193.25,-873.08 193.25,-873.08 193.25,-868.17 198.17,-863.25 203.08,-863.25 203.08,-863.25 283.67,-863.25 283.67,-863.25 288.58,-863.25 293.5,-868.17 293.5,-873.08 293.5,-873.08 293.5,-882.92 293.5,-882.92 293.5,-887.83 288.58,-892.75 283.67,-892.75"/>
<polygon fill="none" stroke="#555555" points="193.25,-863.25 193.25,-892.75 252,-892.75 252,-863.25 193.25,-863.25"/>
<text xml:space="preserve" text-anchor="start" x="198.25" y="-879.2" font-family="Helvetica,sans-Serif" font-size="9.00">input&#45;tensor</text>
<text xml:space="preserve" text-anchor="start" x="207.25" y="-869.45" font-family="Helvetica,sans-Serif" font-size="9.00">depth:0</text>
<polygon fill="none" stroke="#555555" points="252,-863.25 252,-892.75 293.5,-892.75 293.5,-863.25 252,-863.25"/>
<text xml:space="preserve" text-anchor="start" x="257" y="-874.33" font-family="Helvetica,sans-Serif" font-size="9.00">(1, 285)</text>
</g>
<!-- 1 -->
<g id="node2" class="node">
<title>1</title>
<path fill="#c1ffc1" stroke="#555555" d="M293.62,-794.75C293.62,-794.75 193.12,-794.75 193.12,-794.75 187.12,-794.75 181.12,-788.75 181.12,-782.75 181.12,-782.75 181.12,-767.25 181.12,-767.25 181.12,-761.25 187.12,-755.25 193.12,-755.25 193.12,-755.25 293.62,-755.25 293.62,-755.25 299.62,-755.25 305.62,-761.25 305.62,-767.25 305.62,-767.25 305.62,-782.75 305.62,-782.75 305.62,-788.75 299.62,-794.75 293.62,-794.75"/>
<polygon fill="none" stroke="#555555" points="181.12,-755.25 181.12,-794.75 221.88,-794.75 221.88,-755.25 181.12,-755.25"/>
<text xml:space="preserve" text-anchor="start" x="188.38" y="-776.2" font-family="Helvetica,sans-Serif" font-size="9.00">Linear</text>
<text xml:space="preserve" text-anchor="start" x="186.12" y="-766.45" font-family="Helvetica,sans-Serif" font-size="9.00">depth:3</text>
<polygon fill="none" stroke="#555555" points="221.88,-775 221.88,-794.75 261.88,-794.75 261.88,-775 221.88,-775"/>
<text xml:space="preserve" text-anchor="start" x="230.62" y="-781.2" font-family="Helvetica,sans-Serif" font-size="9.00">input:</text>
<polygon fill="none" stroke="#555555" points="261.88,-775 261.88,-794.75 305.62,-794.75 305.62,-775 261.88,-775"/>
<text xml:space="preserve" text-anchor="start" x="266.88" y="-781.2" font-family="Helvetica,sans-Serif" font-size="9.00">(1, 285) </text>
<polygon fill="none" stroke="#555555" points="221.88,-755.25 221.88,-775 261.88,-775 261.88,-755.25 221.88,-755.25"/>
<text xml:space="preserve" text-anchor="start" x="226.88" y="-761.45" font-family="Helvetica,sans-Serif" font-size="9.00">output: </text>
<polygon fill="none" stroke="#555555" points="261.88,-755.25 261.88,-775 305.62,-775 305.62,-755.25 261.88,-755.25"/>
<text xml:space="preserve" text-anchor="start" x="266.88" y="-761.45" font-family="Helvetica,sans-Serif" font-size="9.00">(1, 256) </text>
</g>
<!-- 0&#45;&gt;1 -->
<g id="edge1" class="edge">
<title>0&#45;&gt;1</title>
<path fill="none" stroke="#555555" d="M243.38,-862.8C243.38,-862.8 243.38,-803.74 243.38,-803.74"/>
<polygon fill="#555555" stroke="#555555" points="245.83,-803.74 243.38,-796.74 240.93,-803.74 245.83,-803.74"/>
</g>
<!-- 2 -->
<g id="node3" class="node">
<title>2</title>
<path fill="#c1ffc1" stroke="#555555" d="M306.38,-719.25C306.38,-719.25 180.38,-719.25 180.38,-719.25 174.38,-719.25 168.38,-713.25 168.38,-707.25 168.38,-707.25 168.38,-691.75 168.38,-691.75 168.38,-685.75 174.38,-679.75 180.38,-679.75 180.38,-679.75 306.38,-679.75 306.38,-679.75 312.38,-679.75 318.38,-685.75 318.38,-691.75 318.38,-691.75 318.38,-707.25 318.38,-707.25 318.38,-713.25 312.38,-719.25 306.38,-719.25"/>
<polygon fill="none" stroke="#555555" points="168.38,-679.75 168.38,-719.25 234.62,-719.25 234.62,-679.75 168.38,-679.75"/>
<text xml:space="preserve" text-anchor="start" x="173.38" y="-700.7" font-family="Helvetica,sans-Serif" font-size="9.00">BatchNorm1d</text>
<text xml:space="preserve" text-anchor="start" x="186.12" y="-690.95" font-family="Helvetica,sans-Serif" font-size="9.00">depth:3</text>
<polygon fill="none" stroke="#555555" points="234.62,-699.5 234.62,-719.25 274.62,-719.25 274.62,-699.5 234.62,-699.5"/>
<text xml:space="preserve" text-anchor="start" x="243.38" y="-705.7" font-family="Helvetica,sans-Serif" font-size="9.00">input:</text>
<polygon fill="none" stroke="#555555" points="274.62,-699.5 274.62,-719.25 318.38,-719.25 318.38,-699.5 274.62,-699.5"/>
<text xml:space="preserve" text-anchor="start" x="279.62" y="-705.7" font-family="Helvetica,sans-Serif" font-size="9.00">(1, 256) </text>
<polygon fill="none" stroke="#555555" points="234.62,-679.75 234.62,-699.5 274.62,-699.5 274.62,-679.75 234.62,-679.75"/>
<text xml:space="preserve" text-anchor="start" x="239.62" y="-685.95" font-family="Helvetica,sans-Serif" font-size="9.00">output: </text>
<polygon fill="none" stroke="#555555" points="274.62,-679.75 274.62,-699.5 318.38,-699.5 318.38,-679.75 274.62,-679.75"/>
<text xml:space="preserve" text-anchor="start" x="279.62" y="-685.95" font-family="Helvetica,sans-Serif" font-size="9.00">(1, 256) </text>
</g>
<!-- 1&#45;&gt;2 -->
<g id="edge2" class="edge">
<title>1&#45;&gt;2</title>
<path fill="none" stroke="#555555" d="M243.38,-754.77C243.38,-754.77 243.38,-728.04 243.38,-728.04"/>
<polygon fill="#555555" stroke="#555555" points="245.83,-728.04 243.38,-721.04 240.93,-728.04 245.83,-728.04"/>
</g>
<!-- 3 -->
<g id="node4" class="node">
<title>3</title>
<path fill="aliceblue" stroke="#555555" d="M293.62,-643.75C293.62,-643.75 193.12,-643.75 193.12,-643.75 187.12,-643.75 181.12,-637.75 181.12,-631.75 181.12,-631.75 181.12,-616.25 181.12,-616.25 181.12,-610.25 187.12,-604.25 193.12,-604.25 193.12,-604.25 293.62,-604.25 293.62,-604.25 299.62,-604.25 305.62,-610.25 305.62,-616.25 305.62,-616.25 305.62,-631.75 305.62,-631.75 305.62,-637.75 299.62,-643.75 293.62,-643.75"/>
<polygon fill="none" stroke="#555555" points="181.12,-604.25 181.12,-643.75 221.88,-643.75 221.88,-604.25 181.12,-604.25"/>
<text xml:space="preserve" text-anchor="start" x="193.62" y="-625.2" font-family="Helvetica,sans-Serif" font-size="9.00">relu</text>
<text xml:space="preserve" text-anchor="start" x="186.12" y="-615.45" font-family="Helvetica,sans-Serif" font-size="9.00">depth:3</text>
<polygon fill="none" stroke="#555555" points="221.88,-624 221.88,-643.75 261.88,-643.75 261.88,-624 221.88,-624"/>
<text xml:space="preserve" text-anchor="start" x="230.62" y="-630.2" font-family="Helvetica,sans-Serif" font-size="9.00">input:</text>
<polygon fill="none" stroke="#555555" points="261.88,-624 261.88,-643.75 305.62,-643.75 305.62,-624 261.88,-624"/>
<text xml:space="preserve" text-anchor="start" x="266.88" y="-630.2" font-family="Helvetica,sans-Serif" font-size="9.00">(1, 256) </text>
<polygon fill="none" stroke="#555555" points="221.88,-604.25 221.88,-624 261.88,-624 261.88,-604.25 221.88,-604.25"/>
<text xml:space="preserve" text-anchor="start" x="226.88" y="-610.45" font-family="Helvetica,sans-Serif" font-size="9.00">output: </text>
<polygon fill="none" stroke="#555555" points="261.88,-604.25 261.88,-624 305.62,-624 305.62,-604.25 261.88,-604.25"/>
<text xml:space="preserve" text-anchor="start" x="266.88" y="-610.45" font-family="Helvetica,sans-Serif" font-size="9.00">(1, 256) </text>
</g>
<!-- 2&#45;&gt;3 -->
<g id="edge3" class="edge">
<title>2&#45;&gt;3</title>
<path fill="none" stroke="#555555" d="M243.38,-679.27C243.38,-679.27 243.38,-652.54 243.38,-652.54"/>
<polygon fill="#555555" stroke="#555555" points="245.83,-652.54 243.38,-645.54 240.93,-652.54 245.83,-652.54"/>
</g>
<!-- 4 -->
<g id="node5" class="node">
<title>4</title>
<path fill="#c1ffc1" stroke="#555555" d="M294.75,-568.25C294.75,-568.25 192,-568.25 192,-568.25 186,-568.25 180,-562.25 180,-556.25 180,-556.25 180,-540.75 180,-540.75 180,-534.75 186,-528.75 192,-528.75 192,-528.75 294.75,-528.75 294.75,-528.75 300.75,-528.75 306.75,-534.75 306.75,-540.75 306.75,-540.75 306.75,-556.25 306.75,-556.25 306.75,-562.25 300.75,-568.25 294.75,-568.25"/>
<polygon fill="none" stroke="#555555" points="180,-528.75 180,-568.25 223,-568.25 223,-528.75 180,-528.75"/>
<text xml:space="preserve" text-anchor="start" x="185" y="-549.7" font-family="Helvetica,sans-Serif" font-size="9.00">Dropout</text>
<text xml:space="preserve" text-anchor="start" x="186.12" y="-539.95" font-family="Helvetica,sans-Serif" font-size="9.00">depth:3</text>
<polygon fill="none" stroke="#555555" points="223,-548.5 223,-568.25 263,-568.25 263,-548.5 223,-548.5"/>
<text xml:space="preserve" text-anchor="start" x="231.75" y="-554.7" font-family="Helvetica,sans-Serif" font-size="9.00">input:</text>
<polygon fill="none" stroke="#555555" points="263,-548.5 263,-568.25 306.75,-568.25 306.75,-548.5 263,-548.5"/>
<text xml:space="preserve" text-anchor="start" x="268" y="-554.7" font-family="Helvetica,sans-Serif" font-size="9.00">(1, 256) </text>
<polygon fill="none" stroke="#555555" points="223,-528.75 223,-548.5 263,-548.5 263,-528.75 223,-528.75"/>
<text xml:space="preserve" text-anchor="start" x="228" y="-534.95" font-family="Helvetica,sans-Serif" font-size="9.00">output: </text>
<polygon fill="none" stroke="#555555" points="263,-528.75 263,-548.5 306.75,-548.5 306.75,-528.75 263,-528.75"/>
<text xml:space="preserve" text-anchor="start" x="268" y="-534.95" font-family="Helvetica,sans-Serif" font-size="9.00">(1, 256) </text>
</g>
<!-- 3&#45;&gt;4 -->
<g id="edge4" class="edge">
<title>3&#45;&gt;4</title>
<path fill="none" stroke="#555555" d="M243.38,-603.77C243.38,-603.77 243.38,-577.04 243.38,-577.04"/>
<polygon fill="#555555" stroke="#555555" points="245.83,-577.04 243.38,-570.04 240.93,-577.04 245.83,-577.04"/>
</g>
<!-- 5 -->
<g id="node6" class="node">
<title>5</title>
<path fill="#c1ffc1" stroke="#555555" d="M293.62,-482.5C293.62,-482.5 193.12,-482.5 193.12,-482.5 187.12,-482.5 181.12,-476.5 181.12,-470.5 181.12,-470.5 181.12,-455 181.12,-455 181.12,-449 187.12,-443 193.12,-443 193.12,-443 293.62,-443 293.62,-443 299.62,-443 305.62,-449 305.62,-455 305.62,-455 305.62,-470.5 305.62,-470.5 305.62,-476.5 299.62,-482.5 293.62,-482.5"/>
<polygon fill="none" stroke="#555555" points="181.12,-443 181.12,-482.5 221.88,-482.5 221.88,-443 181.12,-443"/>
<text xml:space="preserve" text-anchor="start" x="188.38" y="-463.95" font-family="Helvetica,sans-Serif" font-size="9.00">Linear</text>
<text xml:space="preserve" text-anchor="start" x="186.12" y="-454.2" font-family="Helvetica,sans-Serif" font-size="9.00">depth:3</text>
<polygon fill="none" stroke="#555555" points="221.88,-462.75 221.88,-482.5 261.88,-482.5 261.88,-462.75 221.88,-462.75"/>
<text xml:space="preserve" text-anchor="start" x="230.62" y="-468.95" font-family="Helvetica,sans-Serif" font-size="9.00">input:</text>
<polygon fill="none" stroke="#555555" points="261.88,-462.75 261.88,-482.5 305.62,-482.5 305.62,-462.75 261.88,-462.75"/>
<text xml:space="preserve" text-anchor="start" x="266.88" y="-468.95" font-family="Helvetica,sans-Serif" font-size="9.00">(1, 256) </text>
<polygon fill="none" stroke="#555555" points="221.88,-443 221.88,-462.75 261.88,-462.75 261.88,-443 221.88,-443"/>
<text xml:space="preserve" text-anchor="start" x="226.88" y="-449.2" font-family="Helvetica,sans-Serif" font-size="9.00">output: </text>
<polygon fill="none" stroke="#555555" points="261.88,-443 261.88,-462.75 305.62,-462.75 305.62,-443 261.88,-443"/>
<text xml:space="preserve" text-anchor="start" x="266.88" y="-449.2" font-family="Helvetica,sans-Serif" font-size="9.00">(1, 128) </text>
</g>
<!-- 4&#45;&gt;5 -->
<g id="edge5" class="edge">
<title>4&#45;&gt;5</title>
<path fill="none" stroke="#555555" d="M243.38,-528.61C243.38,-528.61 243.38,-491.34 243.38,-491.34"/>
<polygon fill="#555555" stroke="#555555" points="245.83,-491.34 243.38,-484.34 240.93,-491.34 245.83,-491.34"/>
</g>
<!-- 6 -->
<g id="node7" class="node">
<title>6</title>
<path fill="#c1ffc1" stroke="#555555" d="M306.38,-407C306.38,-407 180.38,-407 180.38,-407 174.38,-407 168.38,-401 168.38,-395 168.38,-395 168.38,-379.5 168.38,-379.5 168.38,-373.5 174.38,-367.5 180.38,-367.5 180.38,-367.5 306.38,-367.5 306.38,-367.5 312.38,-367.5 318.38,-373.5 318.38,-379.5 318.38,-379.5 318.38,-395 318.38,-395 318.38,-401 312.38,-407 306.38,-407"/>
<polygon fill="none" stroke="#555555" points="168.38,-367.5 168.38,-407 234.62,-407 234.62,-367.5 168.38,-367.5"/>
<text xml:space="preserve" text-anchor="start" x="173.38" y="-388.45" font-family="Helvetica,sans-Serif" font-size="9.00">BatchNorm1d</text>
<text xml:space="preserve" text-anchor="start" x="186.12" y="-378.7" font-family="Helvetica,sans-Serif" font-size="9.00">depth:3</text>
<polygon fill="none" stroke="#555555" points="234.62,-387.25 234.62,-407 274.62,-407 274.62,-387.25 234.62,-387.25"/>
<text xml:space="preserve" text-anchor="start" x="243.38" y="-393.45" font-family="Helvetica,sans-Serif" font-size="9.00">input:</text>
<polygon fill="none" stroke="#555555" points="274.62,-387.25 274.62,-407 318.38,-407 318.38,-387.25 274.62,-387.25"/>
<text xml:space="preserve" text-anchor="start" x="279.62" y="-393.45" font-family="Helvetica,sans-Serif" font-size="9.00">(1, 128) </text>
<polygon fill="none" stroke="#555555" points="234.62,-367.5 234.62,-387.25 274.62,-387.25 274.62,-367.5 234.62,-367.5"/>
<text xml:space="preserve" text-anchor="start" x="239.62" y="-373.7" font-family="Helvetica,sans-Serif" font-size="9.00">output: </text>
<polygon fill="none" stroke="#555555" points="274.62,-367.5 274.62,-387.25 318.38,-387.25 318.38,-367.5 274.62,-367.5"/>
<text xml:space="preserve" text-anchor="start" x="279.62" y="-373.7" font-family="Helvetica,sans-Serif" font-size="9.00">(1, 128) </text>
</g>
<!-- 5&#45;&gt;6 -->
<g id="edge6" class="edge">
<title>5&#45;&gt;6</title>
<path fill="none" stroke="#555555" d="M243.38,-442.52C243.38,-442.52 243.38,-415.79 243.38,-415.79"/>
<polygon fill="#555555" stroke="#555555" points="245.83,-415.79 243.38,-408.79 240.93,-415.79 245.83,-415.79"/>
</g>
<!-- 7 -->
<g id="node8" class="node">
<title>7</title>
<path fill="aliceblue" stroke="#555555" d="M293.62,-331.5C293.62,-331.5 193.12,-331.5 193.12,-331.5 187.12,-331.5 181.12,-325.5 181.12,-319.5 181.12,-319.5 181.12,-304 181.12,-304 181.12,-298 187.12,-292 193.12,-292 193.12,-292 293.62,-292 293.62,-292 299.62,-292 305.62,-298 305.62,-304 305.62,-304 305.62,-319.5 305.62,-319.5 305.62,-325.5 299.62,-331.5 293.62,-331.5"/>
<polygon fill="none" stroke="#555555" points="181.12,-292 181.12,-331.5 221.88,-331.5 221.88,-292 181.12,-292"/>
<text xml:space="preserve" text-anchor="start" x="193.62" y="-312.95" font-family="Helvetica,sans-Serif" font-size="9.00">relu</text>
<text xml:space="preserve" text-anchor="start" x="186.12" y="-303.2" font-family="Helvetica,sans-Serif" font-size="9.00">depth:3</text>
<polygon fill="none" stroke="#555555" points="221.88,-311.75 221.88,-331.5 261.88,-331.5 261.88,-311.75 221.88,-311.75"/>
<text xml:space="preserve" text-anchor="start" x="230.62" y="-317.95" font-family="Helvetica,sans-Serif" font-size="9.00">input:</text>
<polygon fill="none" stroke="#555555" points="261.88,-311.75 261.88,-331.5 305.62,-331.5 305.62,-311.75 261.88,-311.75"/>
<text xml:space="preserve" text-anchor="start" x="266.88" y="-317.95" font-family="Helvetica,sans-Serif" font-size="9.00">(1, 128) </text>
<polygon fill="none" stroke="#555555" points="221.88,-292 221.88,-311.75 261.88,-311.75 261.88,-292 221.88,-292"/>
<text xml:space="preserve" text-anchor="start" x="226.88" y="-298.2" font-family="Helvetica,sans-Serif" font-size="9.00">output: </text>
<polygon fill="none" stroke="#555555" points="261.88,-292 261.88,-311.75 305.62,-311.75 305.62,-292 261.88,-292"/>
<text xml:space="preserve" text-anchor="start" x="266.88" y="-298.2" font-family="Helvetica,sans-Serif" font-size="9.00">(1, 128) </text>
</g>
<!-- 6&#45;&gt;7 -->
<g id="edge7" class="edge">
<title>6&#45;&gt;7</title>
<path fill="none" stroke="#555555" d="M243.38,-367.02C243.38,-367.02 243.38,-340.29 243.38,-340.29"/>
<polygon fill="#555555" stroke="#555555" points="245.83,-340.29 243.38,-333.29 240.93,-340.29 245.83,-340.29"/>
</g>
<!-- 8 -->
<g id="node9" class="node">
<title>8</title>
<path fill="#c1ffc1" stroke="#555555" d="M294.75,-256C294.75,-256 192,-256 192,-256 186,-256 180,-250 180,-244 180,-244 180,-228.5 180,-228.5 180,-222.5 186,-216.5 192,-216.5 192,-216.5 294.75,-216.5 294.75,-216.5 300.75,-216.5 306.75,-222.5 306.75,-228.5 306.75,-228.5 306.75,-244 306.75,-244 306.75,-250 300.75,-256 294.75,-256"/>
<polygon fill="none" stroke="#555555" points="180,-216.5 180,-256 223,-256 223,-216.5 180,-216.5"/>
<text xml:space="preserve" text-anchor="start" x="185" y="-237.45" font-family="Helvetica,sans-Serif" font-size="9.00">Dropout</text>
<text xml:space="preserve" text-anchor="start" x="186.12" y="-227.7" font-family="Helvetica,sans-Serif" font-size="9.00">depth:3</text>
<polygon fill="none" stroke="#555555" points="223,-236.25 223,-256 263,-256 263,-236.25 223,-236.25"/>
<text xml:space="preserve" text-anchor="start" x="231.75" y="-242.45" font-family="Helvetica,sans-Serif" font-size="9.00">input:</text>
<polygon fill="none" stroke="#555555" points="263,-236.25 263,-256 306.75,-256 306.75,-236.25 263,-236.25"/>
<text xml:space="preserve" text-anchor="start" x="268" y="-242.45" font-family="Helvetica,sans-Serif" font-size="9.00">(1, 128) </text>
<polygon fill="none" stroke="#555555" points="223,-216.5 223,-236.25 263,-236.25 263,-216.5 223,-216.5"/>
<text xml:space="preserve" text-anchor="start" x="228" y="-222.7" font-family="Helvetica,sans-Serif" font-size="9.00">output: </text>
<polygon fill="none" stroke="#555555" points="263,-216.5 263,-236.25 306.75,-236.25 306.75,-216.5 263,-216.5"/>
<text xml:space="preserve" text-anchor="start" x="268" y="-222.7" font-family="Helvetica,sans-Serif" font-size="9.00">(1, 128) </text>
</g>
<!-- 7&#45;&gt;8 -->
<g id="edge8" class="edge">
<title>7&#45;&gt;8</title>
<path fill="none" stroke="#555555" d="M243.38,-291.52C243.38,-291.52 243.38,-264.79 243.38,-264.79"/>
<polygon fill="#555555" stroke="#555555" points="245.83,-264.79 243.38,-257.79 240.93,-264.79 245.83,-264.79"/>
</g>
<!-- 9 -->
<g id="node10" class="node">
<title>9</title>
<path fill="#c1ffc1" stroke="#555555" d="M221.62,-180.5C221.62,-180.5 121.12,-180.5 121.12,-180.5 115.12,-180.5 109.12,-174.5 109.12,-168.5 109.12,-168.5 109.12,-153 109.12,-153 109.12,-147 115.12,-141 121.12,-141 121.12,-141 221.62,-141 221.62,-141 227.62,-141 233.62,-147 233.62,-153 233.62,-153 233.62,-168.5 233.62,-168.5 233.62,-174.5 227.62,-180.5 221.62,-180.5"/>
<polygon fill="none" stroke="#555555" points="109.12,-141 109.12,-180.5 149.88,-180.5 149.88,-141 109.12,-141"/>
<text xml:space="preserve" text-anchor="start" x="116.38" y="-161.95" font-family="Helvetica,sans-Serif" font-size="9.00">Linear</text>
<text xml:space="preserve" text-anchor="start" x="114.12" y="-152.2" font-family="Helvetica,sans-Serif" font-size="9.00">depth:1</text>
<polygon fill="none" stroke="#555555" points="149.88,-160.75 149.88,-180.5 189.88,-180.5 189.88,-160.75 149.88,-160.75"/>
<text xml:space="preserve" text-anchor="start" x="158.62" y="-166.95" font-family="Helvetica,sans-Serif" font-size="9.00">input:</text>
<polygon fill="none" stroke="#555555" points="189.88,-160.75 189.88,-180.5 233.62,-180.5 233.62,-160.75 189.88,-160.75"/>
<text xml:space="preserve" text-anchor="start" x="194.88" y="-166.95" font-family="Helvetica,sans-Serif" font-size="9.00">(1, 128) </text>
<polygon fill="none" stroke="#555555" points="149.88,-141 149.88,-160.75 189.88,-160.75 189.88,-141 149.88,-141"/>
<text xml:space="preserve" text-anchor="start" x="154.88" y="-147.2" font-family="Helvetica,sans-Serif" font-size="9.00">output: </text>
<polygon fill="none" stroke="#555555" points="189.88,-141 189.88,-160.75 233.62,-160.75 233.62,-141 189.88,-141"/>
<text xml:space="preserve" text-anchor="start" x="200.12" y="-147.2" font-family="Helvetica,sans-Serif" font-size="9.00">(1, 4) </text>
</g>
<!-- 8&#45;&gt;9 -->
<g id="edge9" class="edge">
<title>8&#45;&gt;9</title>
<path fill="none" stroke="#555555" d="M206.81,-216.02C206.81,-216.02 206.81,-189.29 206.81,-189.29"/>
<polygon fill="#555555" stroke="#555555" points="209.26,-189.29 206.81,-182.29 204.36,-189.29 209.26,-189.29"/>
</g>
<!-- 12 -->
<g id="node13" class="node">
<title>12</title>
<path fill="#c1ffc1" stroke="#555555" d="M364.62,-180.5C364.62,-180.5 264.12,-180.5 264.12,-180.5 258.12,-180.5 252.12,-174.5 252.12,-168.5 252.12,-168.5 252.12,-153 252.12,-153 252.12,-147 258.12,-141 264.12,-141 264.12,-141 364.62,-141 364.62,-141 370.62,-141 376.62,-147 376.62,-153 376.62,-153 376.62,-168.5 376.62,-168.5 376.62,-174.5 370.62,-180.5 364.62,-180.5"/>
<polygon fill="none" stroke="#555555" points="252.12,-141 252.12,-180.5 292.88,-180.5 292.88,-141 252.12,-141"/>
<text xml:space="preserve" text-anchor="start" x="259.38" y="-161.95" font-family="Helvetica,sans-Serif" font-size="9.00">Linear</text>
<text xml:space="preserve" text-anchor="start" x="257.12" y="-152.2" font-family="Helvetica,sans-Serif" font-size="9.00">depth:1</text>
<polygon fill="none" stroke="#555555" points="292.88,-160.75 292.88,-180.5 332.88,-180.5 332.88,-160.75 292.88,-160.75"/>
<text xml:space="preserve" text-anchor="start" x="301.62" y="-166.95" font-family="Helvetica,sans-Serif" font-size="9.00">input:</text>
<polygon fill="none" stroke="#555555" points="332.88,-160.75 332.88,-180.5 376.62,-180.5 376.62,-160.75 332.88,-160.75"/>
<text xml:space="preserve" text-anchor="start" x="337.88" y="-166.95" font-family="Helvetica,sans-Serif" font-size="9.00">(1, 128) </text>
<polygon fill="none" stroke="#555555" points="292.88,-141 292.88,-160.75 332.88,-160.75 332.88,-141 292.88,-141"/>
<text xml:space="preserve" text-anchor="start" x="297.88" y="-147.2" font-family="Helvetica,sans-Serif" font-size="9.00">output: </text>
<polygon fill="none" stroke="#555555" points="332.88,-141 332.88,-160.75 376.62,-160.75 376.62,-141 332.88,-141"/>
<text xml:space="preserve" text-anchor="start" x="343.12" y="-147.2" font-family="Helvetica,sans-Serif" font-size="9.00">(1, 1) </text>
</g>
<!-- 8&#45;&gt;12 -->
<g id="edge10" class="edge">
<title>8&#45;&gt;12</title>
<path fill="none" stroke="#555555" d="M279.44,-216.02C279.44,-216.02 279.44,-189.29 279.44,-189.29"/>
<polygon fill="#555555" stroke="#555555" points="281.89,-189.29 279.44,-182.29 276.99,-189.29 281.89,-189.29"/>
</g>
<!-- 10 -->
<g id="node11" class="node">
<title>10</title>
<path fill="aliceblue" stroke="#555555" d="M102.75,-105C102.75,-105 12,-105 12,-105 6,-105 0,-99 0,-93 0,-93 0,-77.5 0,-77.5 0,-71.5 6,-65.5 12,-65.5 12,-65.5 102.75,-65.5 102.75,-65.5 108.75,-65.5 114.75,-71.5 114.75,-77.5 114.75,-77.5 114.75,-93 114.75,-93 114.75,-99 108.75,-105 102.75,-105"/>
<polygon fill="none" stroke="#555555" points="0,-65.5 0,-105 41.5,-105 41.5,-65.5 0,-65.5"/>
<text xml:space="preserve" text-anchor="start" x="5" y="-86.45" font-family="Helvetica,sans-Serif" font-size="9.00">softmax</text>
<text xml:space="preserve" text-anchor="start" x="5.38" y="-76.7" font-family="Helvetica,sans-Serif" font-size="9.00">depth:1</text>
<polygon fill="none" stroke="#555555" points="41.5,-85.25 41.5,-105 81.5,-105 81.5,-85.25 41.5,-85.25"/>
<text xml:space="preserve" text-anchor="start" x="50.25" y="-91.45" font-family="Helvetica,sans-Serif" font-size="9.00">input:</text>
<polygon fill="none" stroke="#555555" points="81.5,-85.25 81.5,-105 114.75,-105 114.75,-85.25 81.5,-85.25"/>
<text xml:space="preserve" text-anchor="start" x="86.5" y="-91.45" font-family="Helvetica,sans-Serif" font-size="9.00">(1, 4) </text>
<polygon fill="none" stroke="#555555" points="41.5,-65.5 41.5,-85.25 81.5,-85.25 81.5,-65.5 41.5,-65.5"/>
<text xml:space="preserve" text-anchor="start" x="46.5" y="-71.7" font-family="Helvetica,sans-Serif" font-size="9.00">output: </text>
<polygon fill="none" stroke="#555555" points="81.5,-65.5 81.5,-85.25 114.75,-85.25 114.75,-65.5 81.5,-65.5"/>
<text xml:space="preserve" text-anchor="start" x="86.5" y="-71.7" font-family="Helvetica,sans-Serif" font-size="9.00">(1, 4) </text>
</g>
<!-- 9&#45;&gt;10 -->
<g id="edge11" class="edge">
<title>9&#45;&gt;10</title>
<path fill="none" stroke="#555555" d="M123.81,-140.85C123.81,-118.4 123.81,-85 123.81,-85 123.81,-85 122.94,-85 122.94,-85"/>
<polygon fill="#555555" stroke="#555555" points="123.64,-82.55 116.64,-85 123.64,-87.45 123.64,-82.55"/>
</g>
<!-- 15 -->
<g id="node16" class="node">
<title>15</title>
<path fill="lightyellow" stroke="#555555" d="M218.04,-100C218.04,-100 142.71,-100 142.71,-100 137.79,-100 132.88,-95.08 132.88,-90.17 132.88,-90.17 132.88,-80.33 132.88,-80.33 132.88,-75.42 137.79,-70.5 142.71,-70.5 142.71,-70.5 218.04,-70.5 218.04,-70.5 222.96,-70.5 227.88,-75.42 227.88,-80.33 227.88,-80.33 227.88,-90.17 227.88,-90.17 227.88,-95.08 222.96,-100 218.04,-100"/>
<polygon fill="none" stroke="#555555" points="132.88,-70.5 132.88,-100 196.88,-100 196.88,-70.5 132.88,-70.5"/>
<text xml:space="preserve" text-anchor="start" x="137.88" y="-86.45" font-family="Helvetica,sans-Serif" font-size="9.00">output&#45;tensor</text>
<text xml:space="preserve" text-anchor="start" x="149.5" y="-76.7" font-family="Helvetica,sans-Serif" font-size="9.00">depth:0</text>
<polygon fill="none" stroke="#555555" points="196.88,-70.5 196.88,-100 227.88,-100 227.88,-70.5 196.88,-70.5"/>
<text xml:space="preserve" text-anchor="start" x="201.88" y="-81.58" font-family="Helvetica,sans-Serif" font-size="9.00">(1, 4)</text>
</g>
<!-- 9&#45;&gt;15 -->
<g id="edge15" class="edge">
<title>9&#45;&gt;15</title>
<path fill="none" stroke="#555555" d="M180.38,-140.52C180.38,-140.52 180.38,-108.54 180.38,-108.54"/>
<polygon fill="#555555" stroke="#555555" points="182.83,-108.54 180.38,-101.54 177.93,-108.54 182.83,-108.54"/>
</g>
<!-- 11 -->
<g id="node12" class="node">
<title>11</title>
<path fill="lightyellow" stroke="#555555" d="M95.04,-29.5C95.04,-29.5 19.71,-29.5 19.71,-29.5 14.79,-29.5 9.88,-24.58 9.88,-19.67 9.88,-19.67 9.88,-9.83 9.88,-9.83 9.88,-4.92 14.79,0 19.71,0 19.71,0 95.04,0 95.04,0 99.96,0 104.88,-4.92 104.88,-9.83 104.88,-9.83 104.88,-19.67 104.88,-19.67 104.88,-24.58 99.96,-29.5 95.04,-29.5"/>
<polygon fill="none" stroke="#555555" points="9.88,0 9.88,-29.5 73.88,-29.5 73.88,0 9.88,0"/>
<text xml:space="preserve" text-anchor="start" x="14.88" y="-15.95" font-family="Helvetica,sans-Serif" font-size="9.00">output&#45;tensor</text>
<text xml:space="preserve" text-anchor="start" x="26.5" y="-6.2" font-family="Helvetica,sans-Serif" font-size="9.00">depth:0</text>
<polygon fill="none" stroke="#555555" points="73.88,0 73.88,-29.5 104.88,-29.5 104.88,0 73.88,0"/>
<text xml:space="preserve" text-anchor="start" x="78.88" y="-11.07" font-family="Helvetica,sans-Serif" font-size="9.00">(1, 4)</text>
</g>
<!-- 10&#45;&gt;11 -->
<g id="edge12" class="edge">
<title>10&#45;&gt;11</title>
<path fill="none" stroke="#555555" d="M57.38,-65.24C57.38,-65.24 57.38,-38.39 57.38,-38.39"/>
<polygon fill="#555555" stroke="#555555" points="59.83,-38.39 57.38,-31.39 54.93,-38.39 59.83,-38.39"/>
</g>
<!-- 13 -->
<g id="node14" class="node">
<title>13</title>
<path fill="aliceblue" stroke="#555555" d="M361.62,-105C361.62,-105 267.12,-105 267.12,-105 261.12,-105 255.12,-99 255.12,-93 255.12,-93 255.12,-77.5 255.12,-77.5 255.12,-71.5 261.12,-65.5 267.12,-65.5 267.12,-65.5 361.62,-65.5 361.62,-65.5 367.62,-65.5 373.62,-71.5 373.62,-77.5 373.62,-77.5 373.62,-93 373.62,-93 373.62,-99 367.62,-105 361.62,-105"/>
<polygon fill="none" stroke="#555555" points="255.12,-65.5 255.12,-105 300.38,-105 300.38,-65.5 255.12,-65.5"/>
<text xml:space="preserve" text-anchor="start" x="260.12" y="-86.45" font-family="Helvetica,sans-Serif" font-size="9.00">squeeze</text>
<text xml:space="preserve" text-anchor="start" x="262.38" y="-76.7" font-family="Helvetica,sans-Serif" font-size="9.00">depth:1</text>
<polygon fill="none" stroke="#555555" points="300.38,-85.25 300.38,-105 340.38,-105 340.38,-85.25 300.38,-85.25"/>
<text xml:space="preserve" text-anchor="start" x="309.12" y="-91.45" font-family="Helvetica,sans-Serif" font-size="9.00">input:</text>
<polygon fill="none" stroke="#555555" points="340.38,-85.25 340.38,-105 373.62,-105 373.62,-85.25 340.38,-85.25"/>
<text xml:space="preserve" text-anchor="start" x="345.38" y="-91.45" font-family="Helvetica,sans-Serif" font-size="9.00">(1, 1) </text>
<polygon fill="none" stroke="#555555" points="300.38,-65.5 300.38,-85.25 340.38,-85.25 340.38,-65.5 300.38,-65.5"/>
<text xml:space="preserve" text-anchor="start" x="305.38" y="-71.7" font-family="Helvetica,sans-Serif" font-size="9.00">output: </text>
<polygon fill="none" stroke="#555555" points="340.38,-65.5 340.38,-85.25 373.62,-85.25 373.62,-65.5 340.38,-65.5"/>
<text xml:space="preserve" text-anchor="start" x="349.12" y="-71.7" font-family="Helvetica,sans-Serif" font-size="9.00">(1,) </text>
</g>
<!-- 12&#45;&gt;13 -->
<g id="edge13" class="edge">
<title>12&#45;&gt;13</title>
<path fill="none" stroke="#555555" d="M314.38,-140.52C314.38,-140.52 314.38,-113.79 314.38,-113.79"/>
<polygon fill="#555555" stroke="#555555" points="316.83,-113.79 314.38,-106.79 311.93,-113.79 316.83,-113.79"/>
</g>
<!-- 14 -->
<g id="node15" class="node">
<title>14</title>
<path fill="lightyellow" stroke="#555555" d="M348.29,-29.5C348.29,-29.5 280.46,-29.5 280.46,-29.5 275.54,-29.5 270.62,-24.58 270.62,-19.67 270.62,-19.67 270.62,-9.83 270.62,-9.83 270.62,-4.92 275.54,0 280.46,0 280.46,0 348.29,0 348.29,0 353.21,0 358.12,-4.92 358.12,-9.83 358.12,-9.83 358.12,-19.67 358.12,-19.67 358.12,-24.58 353.21,-29.5 348.29,-29.5"/>
<polygon fill="none" stroke="#555555" points="270.62,0 270.62,-29.5 334.62,-29.5 334.62,0 270.62,0"/>
<text xml:space="preserve" text-anchor="start" x="275.62" y="-15.95" font-family="Helvetica,sans-Serif" font-size="9.00">output&#45;tensor</text>
<text xml:space="preserve" text-anchor="start" x="287.25" y="-6.2" font-family="Helvetica,sans-Serif" font-size="9.00">depth:0</text>
<polygon fill="none" stroke="#555555" points="334.62,0 334.62,-29.5 358.12,-29.5 358.12,0 334.62,0"/>
<text xml:space="preserve" text-anchor="start" x="339.62" y="-11.07" font-family="Helvetica,sans-Serif" font-size="9.00">(1,)</text>
</g>
<!-- 13&#45;&gt;14 -->
<g id="edge14" class="edge">
<title>13&#45;&gt;14</title>
<path fill="none" stroke="#555555" d="M314.38,-65.24C314.38,-65.24 314.38,-38.39 314.38,-38.39"/>
<polygon fill="#555555" stroke="#555555" points="316.83,-38.39 314.38,-31.39 311.93,-38.39 316.83,-38.39"/>
</g>
</g>
</svg>
